<?xml version="1.0" encoding="UTF-8" ?>
<!DOCTYPE svg PUBLIC "-//W3C//DTD SVG 1.1//EN" "http://www.w3.org/Graphics/SVG/1.1/DTD/svg11.dtd">
<svg width="596pt" height="248pt" viewBox="0 0 596 248" version="1.1" xmlns="http://www.w3.org/2000/svg">
<path fill="#010101" d=" M 0.00 0.00 L 596.00 0.00 L 596.00 248.00 L 0.00 248.00 L 0.00 0.00 Z" />
<path fill="#2d235e" d=" M 222.44 50.39 C 230.48 50.35 238.52 50.35 246.56 50.39 C 248.56 52.42 250.58 54.45 252.61 56.45 C 252.66 65.82 252.63 75.18 252.63 84.54 C 252.14 84.99 251.18 85.90 250.69 86.35 C 251.33 87.08 251.97 87.81 252.61 88.54 C 252.65 119.54 252.65 150.54 252.61 181.54 C 250.58 183.55 248.56 185.57 246.56 187.61 C 238.48 187.66 230.40 187.62 222.32 187.64 C 219.94 185.12 217.62 182.55 215.44 179.86 C 212.99 182.24 210.59 184.89 207.29 186.08 C 196.36 190.31 184.46 189.76 172.96 189.60 C 164.49 189.38 155.85 187.02 149.15 181.67 C 143.10 176.81 137.85 170.99 133.46 164.60 C 129.38 172.63 122.83 179.38 115.13 184.00 C 104.09 189.95 91.17 189.77 78.99 189.66 C 67.61 189.92 56.31 187.69 45.53 184.21 C 41.32 182.97 38.34 179.65 35.37 176.63 C 35.46 169.07 35.21 161.50 35.36 153.94 C 34.98 149.71 38.94 147.27 41.44 144.53 C 46.58 144.55 52.08 143.78 56.80 146.32 C 66.85 151.03 78.30 155.86 89.52 152.69 C 92.67 151.72 97.13 149.91 96.54 145.83 C 94.11 142.20 89.42 141.34 85.52 140.16 C 73.98 137.44 61.46 136.55 51.49 129.51 C 43.63 123.58 35.80 115.57 35.50 105.09 C 35.40 97.15 34.61 88.99 36.54 81.20 C 37.70 76.75 40.18 72.75 43.38 69.48 C 48.29 64.36 53.40 58.96 60.27 56.55 C 69.72 52.74 80.06 53.34 90.03 53.34 C 99.61 53.26 109.14 54.97 118.28 57.76 C 122.58 58.92 125.63 62.31 128.63 65.37 C 128.62 73.74 128.70 82.10 128.56 90.47 C 126.53 92.46 124.51 94.46 122.50 96.48 C 117.32 96.52 111.86 97.11 107.02 94.84 C 98.52 91.30 88.96 87.28 79.72 90.44 C 76.84 91.08 75.17 93.59 73.76 95.95 C 86.69 101.31 101.33 100.87 113.88 107.27 C 119.88 110.18 124.33 115.26 128.93 119.93 C 130.46 109.93 135.38 100.65 142.95 93.93 C 150.31 85.74 160.92 80.84 171.92 80.49 C 183.64 80.24 195.66 79.71 207.02 83.14 C 210.53 84.09 213.06 86.84 215.57 89.30 C 216.49 88.44 217.41 87.58 218.34 86.73 C 217.68 85.96 217.03 85.20 216.39 84.44 C 216.35 75.11 216.35 65.79 216.39 56.46 C 218.41 54.45 220.43 52.43 222.44 50.39 Z" />
<path fill="#010101" d=" M 223.44 52.17 C 226.22 51.33 229.20 51.69 232.08 51.61 C 236.39 51.74 240.75 51.28 245.03 51.98 C 248.43 53.60 251.72 56.94 251.36 61.01 C 251.43 68.59 251.24 76.18 251.33 83.76 C 250.37 84.54 249.41 85.32 248.45 86.10 C 249.90 88.16 251.60 90.28 251.35 92.97 C 251.31 120.98 251.30 148.99 251.36 177.00 C 251.82 181.10 248.15 183.60 245.77 186.32 C 238.51 186.05 231.19 186.88 223.97 186.02 C 220.58 184.40 217.29 181.08 217.64 177.02 C 217.72 147.76 217.64 118.50 217.69 89.24 C 218.76 88.31 219.84 87.38 220.92 86.45 C 219.84 85.56 218.76 84.68 217.68 83.79 C 217.75 76.19 217.57 68.59 217.64 60.99 C 217.26 57.07 220.34 54.01 223.44 52.17 Z" />
<path fill="#2d235e" d=" M 224.41 54.22 C 231.13 54.17 237.86 54.17 244.59 54.22 C 245.98 55.62 247.38 57.01 248.78 58.41 C 248.83 66.46 248.82 74.51 248.79 82.57 C 247.43 83.91 246.10 85.27 244.75 86.62 C 246.10 87.85 247.44 89.09 248.79 90.33 C 248.82 120.08 248.83 149.84 248.78 179.59 C 247.38 180.98 245.99 182.37 244.60 183.78 C 237.87 183.83 231.13 183.83 224.40 183.78 C 223.01 182.37 221.61 180.98 220.22 179.59 C 220.16 149.85 220.19 120.11 220.21 90.37 C 221.55 89.10 222.90 87.83 224.25 86.55 C 222.91 85.23 221.56 83.92 220.21 82.60 C 220.18 74.53 220.17 66.46 220.22 58.40 C 221.62 57.01 223.01 55.62 224.41 54.22 Z" />
<path fill="#2d235e" d=" M 474.40 54.22 C 481.13 54.17 487.86 54.17 494.60 54.22 C 495.99 55.62 497.38 57.02 498.79 58.42 C 498.83 67.90 498.81 77.37 498.81 86.85 C 507.54 83.68 517.01 83.76 526.14 84.56 C 536.55 85.69 544.49 93.53 550.56 101.43 C 557.83 111.35 559.18 124.09 558.83 136.02 C 559.13 147.76 557.19 160.24 549.72 169.69 C 544.78 175.72 539.03 181.66 531.48 184.23 C 524.87 186.38 517.78 185.88 510.94 185.71 C 505.83 185.60 500.99 183.84 496.31 181.94 C 495.88 182.40 495.02 183.33 494.59 183.80 C 487.86 183.81 481.13 183.83 474.41 183.78 C 473.01 182.39 471.62 181.00 470.23 179.62 C 470.16 139.21 470.17 98.80 470.22 58.39 C 471.61 57.01 473.01 55.62 474.40 54.22 Z" />
<path fill="#010101" d=" M 51.05 64.02 C 59.87 55.94 72.51 54.30 84.00 54.63 C 95.65 54.22 107.38 55.73 118.44 59.45 C 122.08 60.66 124.66 63.61 127.34 66.18 C 127.31 73.90 127.28 81.62 127.40 89.34 C 125.36 91.38 123.32 93.43 121.30 95.49 C 116.45 95.51 111.43 95.44 107.01 93.20 C 97.44 89.15 86.02 84.83 76.13 90.40 C 73.28 91.43 73.54 94.76 73.07 97.20 C 85.29 102.46 99.04 102.27 111.20 107.63 C 118.99 110.99 124.76 117.48 130.05 123.88 C 130.66 118.51 131.63 113.10 134.03 108.20 C 137.03 101.60 142.35 96.48 147.59 91.62 C 154.70 85.07 164.42 82.01 173.96 81.71 C 185.04 81.49 196.42 81.18 207.07 84.76 C 210.44 85.95 212.78 88.81 215.33 91.17 C 215.32 98.56 215.28 105.95 215.40 113.33 C 213.36 115.38 211.33 117.42 209.31 119.48 C 204.75 119.48 200.02 119.48 195.81 117.50 C 189.40 114.76 181.92 111.90 175.19 115.35 C 169.26 117.31 166.70 123.56 165.39 129.15 C 163.49 135.78 165.31 142.87 168.37 148.85 C 170.86 153.61 176.41 155.66 181.45 156.28 C 187.24 156.41 192.54 153.69 197.86 151.74 C 201.51 150.39 205.46 150.61 209.29 150.51 C 211.31 152.56 213.35 154.60 215.39 156.64 C 215.18 162.76 215.54 168.89 215.30 175.01 C 215.32 179.01 211.75 181.74 208.68 183.69 C 198.57 188.69 186.97 188.51 175.96 188.36 C 166.48 188.48 156.65 185.96 149.25 179.81 C 142.79 174.27 136.66 168.01 133.25 160.08 C 131.17 168.58 124.71 174.90 118.16 180.24 C 105.77 189.24 89.61 188.47 75.05 188.33 C 65.52 188.07 56.12 185.91 47.04 183.12 C 42.81 181.99 39.66 178.85 36.66 175.85 C 36.68 167.78 36.72 159.71 36.61 151.64 C 38.65 149.60 40.69 147.57 42.72 145.52 C 46.75 145.63 51.00 145.29 54.77 147.03 C 59.18 149.03 63.50 151.29 68.18 152.64 C 76.81 155.62 86.83 156.92 95.01 151.95 C 98.61 150.06 98.79 143.93 95.03 142.10 C 89.81 139.16 83.77 138.24 77.97 137.08 C 68.96 135.39 59.59 133.47 51.99 128.04 C 44.23 122.30 37.04 114.17 36.77 104.02 C 36.69 95.94 35.74 87.51 38.59 79.76 C 40.88 73.28 46.19 68.61 51.05 64.02 Z" />
<path fill="#2d235e" d=" M 71.00 57.95 C 86.39 56.24 102.32 56.84 117.10 61.81 C 120.15 62.78 122.50 65.01 124.84 67.08 C 124.65 73.41 125.09 79.75 124.75 86.08 C 124.78 88.91 122.32 90.74 120.76 92.79 C 116.78 92.68 112.64 92.78 108.94 91.05 C 99.92 87.30 89.93 83.52 80.07 86.06 C 76.34 87.07 71.80 88.67 70.74 92.87 C 69.53 96.01 71.33 99.61 74.56 100.57 C 85.50 104.96 97.69 104.89 108.58 109.46 C 115.57 112.15 121.25 117.31 125.95 123.01 C 129.22 126.99 130.52 132.07 132.00 136.90 C 132.09 126.40 132.51 115.29 138.23 106.11 C 145.32 95.23 156.38 85.97 169.74 84.68 C 181.24 83.79 193.08 83.63 204.31 86.67 C 207.70 87.46 210.32 89.82 212.83 92.07 C 212.66 98.04 213.08 104.03 212.76 109.99 C 212.81 112.87 210.32 114.72 208.73 116.80 C 205.03 116.65 201.19 116.78 197.71 115.29 C 191.77 112.92 185.42 110.39 178.91 111.53 C 174.47 112.42 169.78 114.22 167.10 118.08 C 160.56 128.12 160.57 141.89 167.10 151.93 C 169.77 155.77 174.43 157.57 178.85 158.47 C 185.39 159.63 191.77 157.08 197.73 154.70 C 201.20 153.23 205.03 153.35 208.73 153.19 C 210.29 155.26 212.77 157.09 212.75 159.93 C 213.08 165.58 212.68 171.25 212.83 176.91 C 206.85 183.58 197.47 184.96 189.01 185.66 C 178.85 185.88 168.15 186.70 158.62 182.41 C 151.34 179.25 145.66 173.40 140.66 167.39 C 135.67 161.26 133.82 153.43 132.12 145.90 C 131.76 153.40 131.48 161.52 126.79 167.79 C 121.92 174.25 115.62 180.03 107.83 182.62 C 97.97 186.19 87.34 185.88 77.02 185.79 C 66.91 185.72 56.94 183.46 47.35 180.40 C 44.13 179.42 41.60 177.12 39.16 174.92 C 39.36 168.27 38.92 161.61 39.25 154.96 C 39.22 152.11 41.69 150.28 43.27 148.21 C 46.99 148.38 50.90 148.14 54.32 149.85 C 65.01 154.86 77.00 159.62 88.98 157.08 C 93.22 155.99 98.39 154.49 100.01 149.90 C 101.73 145.95 99.61 141.00 95.67 139.34 C 85.94 134.64 74.78 134.77 64.67 131.22 C 55.63 128.51 47.68 122.43 42.62 114.48 C 38.72 108.03 39.11 100.22 39.16 92.98 C 39.17 87.20 40.12 81.22 43.31 76.29 C 49.71 66.92 59.48 59.36 71.00 57.95 Z" />
<path fill="#010101" d=" M 72.03 59.70 C 86.29 57.71 100.99 58.93 114.78 63.09 C 117.92 64.13 121.94 65.45 122.91 69.02 C 123.60 75.03 123.00 81.10 123.16 87.14 C 122.00 88.44 120.84 89.73 119.68 91.03 C 116.09 90.87 112.42 90.59 109.12 89.01 C 99.77 85.06 89.28 81.57 79.11 84.33 C 75.21 85.39 70.82 87.19 69.26 91.28 C 67.39 95.07 68.72 100.51 72.96 102.01 C 85.85 107.46 100.82 106.51 113.03 113.86 C 120.90 118.81 127.97 126.36 129.45 135.87 C 130.55 142.84 130.56 150.04 129.24 156.98 C 127.65 165.60 121.35 172.51 114.30 177.29 C 105.36 182.98 94.42 183.98 84.07 184.20 C 71.68 184.51 59.30 182.39 47.59 178.41 C 44.72 177.35 41.11 175.56 40.96 172.07 C 40.52 166.02 40.97 159.95 40.84 153.89 C 42.00 152.59 43.17 151.28 44.33 149.98 C 48.16 150.08 52.03 150.62 55.42 152.50 C 66.33 157.62 78.86 161.70 90.92 158.57 C 95.22 157.39 100.19 155.49 101.73 150.86 C 103.91 146.00 101.56 139.61 96.56 137.58 C 84.68 132.08 70.88 132.87 59.14 126.90 C 53.56 124.15 48.78 119.86 45.17 114.82 C 40.43 107.87 40.54 99.00 40.96 90.94 C 41.27 83.68 44.29 76.61 49.54 71.54 C 55.35 65.07 63.44 60.89 72.03 59.70 Z" />
<path fill="#010101" d=" M 227.28 60.32 C 232.03 59.66 236.94 59.64 241.68 60.34 C 244.16 62.70 242.60 66.92 243.09 70.04 C 242.58 73.47 244.22 77.97 241.71 80.67 C 236.95 81.35 232.04 81.34 227.29 80.67 C 224.89 78.24 226.37 74.12 225.91 71.00 C 226.40 67.54 224.81 63.10 227.28 60.32 Z" />
<path fill="#010101" d=" M 476.31 61.22 C 478.87 59.01 482.82 60.23 485.98 59.87 C 488.41 60.13 493.19 59.13 492.93 62.95 C 493.15 75.09 492.93 87.25 492.98 99.40 C 497.26 95.47 502.18 91.94 508.02 90.89 C 517.09 89.14 527.24 89.55 535.11 94.89 C 545.14 101.66 551.10 113.25 552.42 125.12 C 553.74 137.54 553.20 150.86 547.00 162.02 C 542.43 169.99 535.13 177.00 525.95 179.09 C 514.57 181.55 501.41 179.62 493.20 170.71 C 492.71 172.96 493.74 176.06 491.69 177.68 C 486.94 178.35 482.04 178.34 477.30 177.67 C 475.63 176.73 476.17 174.59 475.96 173.01 C 476.05 140.34 475.98 107.66 476.00 74.98 C 476.07 70.40 475.61 65.77 476.31 61.22 Z" />
<path fill="#2d235e" d=" M 71.99 62.01 C 85.66 59.88 99.80 61.09 113.05 65.02 C 115.89 65.83 118.51 67.25 121.02 68.78 C 120.61 75.63 122.27 82.93 119.17 89.36 C 111.78 88.30 105.31 84.28 98.08 82.67 C 89.67 80.46 80.28 80.27 72.42 84.41 C 66.37 87.40 64.16 96.23 68.35 101.59 C 70.38 103.82 73.37 104.81 76.16 105.75 C 87.36 109.15 99.53 109.44 110.07 114.93 C 118.51 119.39 125.79 127.23 127.34 136.92 C 128.30 143.21 128.31 149.72 127.12 155.98 C 125.64 163.82 120.26 170.36 113.82 174.80 C 107.37 179.15 99.55 180.90 91.90 181.61 C 81.91 182.35 71.77 182.14 61.97 179.92 C 55.42 178.44 48.67 176.99 42.98 173.24 C 43.49 166.04 41.58 158.36 44.88 151.60 C 50.71 152.52 55.84 155.50 61.26 157.64 C 71.19 161.26 82.25 163.50 92.65 160.50 C 97.06 159.25 101.75 156.96 103.58 152.46 C 106.55 146.39 104.02 138.05 97.57 135.44 C 85.50 129.87 71.42 130.77 59.58 124.45 C 51.57 120.36 44.62 112.93 43.47 103.71 C 42.56 95.58 42.49 86.78 46.50 79.39 C 51.82 70.14 61.47 63.67 71.99 62.01 Z" />
<path fill="#2d235e" d=" M 228.00 62.00 C 232.33 62.00 236.67 62.00 241.00 62.00 C 241.00 67.67 241.00 73.33 241.00 79.00 C 236.67 79.00 232.33 79.00 228.00 79.00 C 228.00 73.33 228.00 67.66 228.00 62.00 Z" />
<path fill="#2d235e" d=" M 478.00 62.00 C 482.33 62.00 486.67 62.00 491.00 62.00 C 491.00 76.50 491.00 91.01 491.00 105.52 C 493.97 101.69 497.17 97.80 501.57 95.55 C 508.98 91.71 517.87 91.03 525.90 93.09 C 535.47 95.60 542.81 103.42 546.72 112.26 C 551.12 122.34 551.78 133.72 550.40 144.53 C 549.01 154.94 544.34 165.31 535.92 171.89 C 527.13 178.85 514.61 179.63 504.35 175.76 C 498.70 173.72 494.55 169.19 491.00 164.53 C 491.00 168.35 491.00 172.18 491.00 176.00 C 486.67 176.00 482.33 176.00 478.00 176.00 C 478.00 138.00 478.00 100.00 478.00 62.00 Z" />
<path fill="#010101" d=" M 51.70 75.74 C 58.09 67.98 68.04 64.09 77.87 63.31 C 91.81 62.22 106.18 64.10 119.02 69.76 C 119.08 75.66 119.21 81.60 118.28 87.46 C 109.05 84.21 100.04 79.76 90.11 79.19 C 83.30 78.71 76.04 79.51 70.16 83.22 C 63.35 87.49 61.75 98.63 67.81 104.17 C 73.26 108.19 80.25 109.00 86.70 110.42 C 97.92 112.48 110.11 114.98 118.20 123.72 C 126.03 131.59 127.07 143.66 125.33 154.09 C 123.89 163.01 117.62 170.63 109.68 174.69 C 102.10 178.57 93.46 179.73 85.04 179.97 C 71.36 180.32 57.50 177.79 44.98 172.23 C 44.96 165.98 44.73 159.70 45.73 153.51 C 53.45 156.41 60.75 160.53 68.88 162.25 C 79.04 164.63 90.48 165.11 99.85 159.84 C 107.77 155.38 109.25 143.34 103.21 136.76 C 99.77 133.31 94.95 131.78 90.36 130.54 C 80.15 128.09 69.35 127.18 59.95 122.15 C 52.92 118.52 47.11 112.01 45.69 104.07 C 43.98 94.41 44.95 83.38 51.70 75.74 Z" />
<path fill="#2d235e" d=" M 268.41 63.04 C 278.95 63.02 289.48 63.04 300.02 63.02 C 311.60 62.97 323.40 63.75 334.38 67.70 C 344.67 71.22 353.46 78.67 358.97 88.00 C 365.48 99.48 366.27 113.10 365.90 126.00 C 365.64 139.67 362.14 154.22 351.96 163.98 C 341.30 175.40 325.11 178.99 310.09 179.77 C 296.19 180.21 282.28 179.88 268.38 179.95 C 267.60 179.17 266.82 178.39 266.05 177.62 C 266.02 140.20 266.02 102.79 266.05 65.37 C 266.83 64.59 267.62 63.82 268.41 63.04 Z" />
<path fill="#2d235e" d=" M 71.55 66.44 C 86.71 63.00 102.54 65.88 117.01 70.91 C 117.00 75.61 117.00 80.31 117.00 85.00 C 105.52 79.63 92.76 75.55 79.95 77.51 C 73.71 78.42 66.96 81.08 63.89 86.98 C 60.27 93.84 61.60 104.21 69.26 107.69 C 81.38 113.28 95.47 112.43 107.44 118.52 C 115.01 122.02 121.19 128.77 123.01 137.03 C 125.42 147.34 123.93 159.45 116.25 167.27 C 109.15 174.43 98.81 176.96 89.07 177.78 C 74.73 179.07 60.41 175.91 46.99 171.07 C 47.00 166.05 47.00 161.02 47.00 156.00 C 58.37 162.01 70.99 166.37 84.01 165.96 C 90.69 165.71 97.78 164.46 103.10 160.14 C 111.50 153.38 110.98 138.13 101.44 132.61 C 92.69 127.38 82.16 127.30 72.56 124.59 C 64.31 122.35 55.52 118.79 50.80 111.22 C 46.12 103.40 45.92 93.42 48.81 84.93 C 52.24 75.12 61.69 68.63 71.55 66.44 Z" />
<path fill="#010101" d=" M 269.34 65.30 C 273.52 64.61 277.79 65.06 282.01 64.99 C 294.89 65.20 307.89 64.31 320.66 66.43 C 328.85 67.81 337.01 70.29 343.95 74.95 C 350.50 79.44 355.86 85.73 359.02 93.04 C 362.86 101.81 363.94 111.51 363.99 121.00 C 364.01 130.59 363.00 140.39 359.24 149.30 C 356.22 156.61 351.00 162.94 344.59 167.54 C 337.52 172.51 329.08 175.13 320.64 176.57 C 308.21 178.66 295.57 177.82 283.04 178.00 C 278.46 177.92 273.83 178.40 269.29 177.70 C 267.65 176.71 268.16 174.58 267.96 172.99 C 268.05 142.01 267.98 111.02 268.00 80.04 C 268.08 75.46 267.60 70.84 268.30 66.30 C 268.56 66.05 269.08 65.55 269.34 65.30 Z" />
<path fill="#2d235e" d=" M 270.00 67.00 C 290.03 67.66 310.64 64.83 330.11 70.84 C 340.88 74.03 350.70 81.15 355.79 91.32 C 361.82 103.20 362.71 117.00 361.63 130.07 C 360.57 142.41 356.20 155.19 346.46 163.37 C 335.57 172.56 320.85 175.20 307.02 175.91 C 294.68 176.15 282.34 175.92 270.00 176.00 C 270.00 139.67 270.00 103.33 270.00 67.00 Z" />
<path fill="#010101" d=" M 285.01 79.01 C 299.70 79.31 315.34 77.40 328.98 84.13 C 337.60 88.18 343.28 96.77 345.26 105.91 C 347.77 117.21 347.64 129.22 344.33 140.34 C 341.82 148.75 335.75 156.09 327.60 159.52 C 314.22 165.48 299.23 163.70 285.00 163.99 C 285.00 135.66 285.00 107.33 285.01 79.01 Z" />
<path fill="#2d235e" d=" M 287.00 81.00 C 301.41 81.16 316.98 79.61 329.97 87.15 C 339.41 92.40 343.40 103.48 344.52 113.66 C 345.61 124.92 344.78 137.00 338.96 146.97 C 335.29 153.40 328.57 157.39 321.64 159.45 C 310.42 162.87 298.56 161.84 287.00 162.00 C 287.00 135.00 287.00 108.00 287.00 81.00 Z" />
<path fill="#010101" d=" M 288.98 82.98 C 302.44 82.97 316.92 82.12 329.01 89.13 C 337.20 93.67 340.71 103.20 342.16 111.96 C 343.86 123.42 342.84 135.83 336.96 146.02 C 333.39 152.32 326.55 155.79 319.83 157.71 C 309.81 160.58 299.28 159.98 288.98 160.02 C 288.96 134.34 288.97 108.66 288.98 82.98 Z" />
<path fill="#2d235e" d=" M 385.40 97.41 C 392.16 89.85 401.74 84.84 411.95 84.38 C 423.07 83.94 435.41 83.17 444.89 90.13 C 451.77 95.57 458.35 102.16 461.18 110.68 C 464.76 120.59 463.67 131.28 463.77 141.60 C 462.38 142.99 460.99 144.38 459.61 145.78 C 441.05 145.88 422.48 145.73 403.92 145.85 C 405.82 149.80 407.88 154.20 412.21 155.98 C 422.47 161.37 434.55 158.02 444.41 153.38 C 448.21 151.33 452.56 151.28 456.76 151.23 C 458.31 153.29 460.77 155.12 460.75 157.95 C 461.08 163.93 460.66 169.92 460.83 175.91 C 454.16 183.10 443.75 184.00 434.62 185.44 C 421.50 186.02 407.30 187.17 395.45 180.37 C 388.19 175.98 381.97 169.76 377.57 162.52 C 371.28 151.77 371.97 138.89 372.37 126.91 C 372.89 115.91 377.29 105.00 385.40 97.41 Z" />
<path fill="#2d235e" d=" M 291.12 85.12 C 304.59 85.06 319.52 84.69 330.82 93.24 C 337.90 99.65 340.01 109.78 340.67 118.94 C 340.91 129.55 339.03 141.39 331.35 149.29 C 320.12 158.36 304.78 157.93 291.12 157.88 C 291.18 133.63 291.18 109.37 291.12 85.12 Z" />
<path fill="#010101" d=" M 166.24 87.24 C 177.41 84.94 189.05 85.48 200.20 87.63 C 204.03 88.54 208.73 89.43 210.71 93.28 C 211.78 99.26 210.88 105.39 211.27 111.44 C 209.59 112.76 208.13 114.64 205.98 115.17 C 201.57 115.34 197.65 112.96 193.59 111.61 C 187.60 109.40 180.82 108.37 174.68 110.62 C 170.52 111.97 166.54 114.49 164.52 118.50 C 158.47 129.36 158.86 143.73 166.13 153.93 C 170.84 159.32 178.65 161.34 185.58 160.42 C 193.21 159.61 199.79 154.60 207.64 154.95 C 208.80 156.26 209.98 157.55 211.15 158.85 C 210.99 164.45 211.73 170.14 210.74 175.68 C 207.28 181.29 199.82 181.94 193.94 183.26 C 180.91 184.85 166.47 185.39 154.89 178.20 C 146.73 172.67 139.69 164.89 136.54 155.41 C 133.80 147.25 133.59 138.51 133.90 129.99 C 134.25 121.07 136.27 111.89 141.60 104.55 C 147.64 96.35 156.06 89.35 166.24 87.24 Z" />
<path fill="#010101" d=" M 409.68 86.48 C 420.99 85.21 433.57 84.92 443.44 91.48 C 450.67 96.68 456.97 103.73 459.69 112.34 C 462.34 120.61 462.40 129.45 462.13 138.05 C 462.41 141.87 458.67 144.67 455.05 144.18 C 437.14 144.18 419.23 144.12 401.32 144.18 C 403.33 149.17 405.40 154.88 410.62 157.36 C 421.26 163.28 434.16 160.31 444.60 155.46 C 448.01 153.67 451.82 153.10 455.63 152.96 C 456.79 154.27 457.97 155.58 459.16 156.89 C 459.07 162.27 459.46 167.66 459.04 173.03 C 458.84 176.83 454.80 178.62 451.71 179.75 C 438.36 184.22 423.92 185.23 410.01 183.31 C 400.39 181.97 391.69 176.76 385.31 169.53 C 378.02 162.33 374.45 152.14 373.99 142.04 C 373.36 129.99 373.92 117.07 380.47 106.53 C 387.07 96.42 397.34 87.91 409.68 86.48 Z" />
<path fill="#010101" d=" M 292.81 86.78 C 305.05 86.68 318.32 87.06 328.82 94.16 C 335.45 99.42 337.44 108.38 338.64 116.34 C 339.53 127.08 337.71 139.03 330.49 147.42 C 320.09 156.03 305.65 156.27 292.80 156.22 C 292.82 133.07 292.81 109.92 292.81 86.78 Z" />
<path fill="#2d235e" d=" M 171.12 88.64 C 180.15 87.51 189.38 87.88 198.31 89.57 C 202.14 90.22 205.74 91.73 209.03 93.77 C 208.70 100.30 210.14 107.25 207.17 113.36 C 199.26 112.06 192.19 107.51 184.08 107.21 C 175.85 106.61 166.53 109.78 162.43 117.39 C 156.62 128.13 156.62 141.88 162.44 152.61 C 166.53 160.23 175.87 163.41 184.10 162.79 C 192.19 162.47 199.26 157.98 207.13 156.61 C 210.04 162.39 208.80 169.00 209.02 175.21 C 202.06 180.17 193.30 181.47 184.97 181.91 C 175.06 182.36 164.51 181.62 155.96 176.09 C 148.16 170.91 141.63 163.38 138.68 154.39 C 135.77 145.89 135.75 136.74 136.26 127.87 C 136.87 117.89 140.56 107.89 147.75 100.78 C 153.82 94.14 162.19 89.77 171.12 88.64 Z" />
<path fill="#2d235e" d=" M 410.70 88.60 C 421.14 87.45 432.64 87.33 441.82 93.22 C 449.22 98.19 455.28 105.50 457.80 114.13 C 460.41 122.38 459.99 131.13 459.94 139.66 C 459.17 140.42 458.40 141.18 457.64 141.94 C 437.92 142.04 418.21 141.88 398.50 142.03 C 400.19 147.78 402.00 154.13 407.07 157.86 C 414.88 163.54 425.27 163.82 434.34 161.56 C 441.56 160.12 447.82 155.83 455.11 154.61 C 458.19 160.70 456.69 167.67 457.03 174.20 C 450.22 178.86 441.86 180.25 433.86 181.42 C 421.41 182.54 407.91 182.73 396.80 176.16 C 388.23 170.85 381.08 162.71 378.17 152.93 C 375.95 145.83 375.84 138.29 376.11 130.92 C 376.41 123.01 378.15 115.00 382.24 108.15 C 388.43 98.06 398.72 90.04 410.70 88.60 Z" />
<path fill="#2d235e" d=" M 295.27 89.20 C 306.65 89.41 319.29 90.01 328.56 97.44 C 334.62 104.62 336.60 114.66 336.38 123.86 C 335.43 131.64 333.74 140.20 328.05 146.00 C 318.73 152.97 306.47 153.62 295.27 153.80 C 295.36 132.27 295.36 110.73 295.27 89.20 Z" />
<path fill="#010101" d=" M 150.77 100.78 C 157.67 93.93 167.35 90.56 176.94 90.12 C 187.12 89.68 197.63 90.56 207.04 94.73 C 207.10 100.31 207.14 105.91 206.29 111.43 C 199.03 108.90 191.91 105.41 184.08 105.14 C 175.96 104.55 167.01 107.20 162.03 114.00 C 156.51 121.69 155.34 131.70 156.41 140.90 C 157.37 148.04 160.08 155.52 166.00 160.03 C 172.29 164.75 180.66 165.71 188.25 164.41 C 194.54 163.42 200.30 160.61 206.28 158.57 C 207.09 163.75 207.11 169.01 207.05 174.24 C 196.06 179.97 183.13 180.96 171.01 179.29 C 158.35 177.51 147.28 168.57 142.08 157.01 C 137.89 147.66 137.48 137.10 138.39 127.04 C 139.33 117.21 143.42 107.52 150.77 100.78 Z" />
<path fill="#010101" d=" M 406.70 91.64 C 414.26 89.67 422.30 89.47 429.97 90.89 C 441.02 92.97 450.25 101.34 454.53 111.58 C 457.64 118.95 458.14 127.08 458.07 134.99 C 457.85 136.58 458.37 138.75 456.68 139.70 C 455.13 140.03 453.53 140.03 451.96 140.06 C 433.33 139.97 414.70 139.95 396.07 140.06 C 397.43 146.94 399.38 154.35 405.02 159.02 C 412.76 165.36 423.58 165.85 433.02 164.02 C 440.51 162.80 447.24 159.16 454.27 156.53 C 455.16 162.05 455.10 167.66 455.03 173.23 C 446.04 177.64 435.99 179.55 426.04 179.95 C 417.58 180.26 408.84 179.51 401.09 175.89 C 389.98 170.73 381.49 160.15 379.16 148.08 C 377.43 139.07 377.58 129.65 379.60 120.69 C 382.68 107.18 393.17 95.27 406.70 91.64 Z" />
<path fill="#010101" d=" M 296.60 90.48 C 307.02 90.75 318.31 91.80 327.00 98.09 C 332.90 104.43 334.67 113.67 335.17 122.05 C 334.34 130.07 332.71 138.92 326.94 144.95 C 318.25 151.18 307.00 152.28 296.60 152.52 C 296.66 131.84 296.66 111.16 296.60 90.48 Z" />
<path fill="#2d235e" d=" M 169.23 93.29 C 181.09 90.59 193.54 92.20 205.01 95.90 C 205.00 100.25 205.00 104.60 205.01 108.95 C 194.78 103.98 182.73 100.99 171.59 104.62 C 163.70 107.09 157.92 114.11 155.77 121.94 C 153.28 130.96 153.35 140.80 156.31 149.70 C 158.76 157.11 164.68 163.45 172.29 165.61 C 183.26 168.89 194.98 165.91 205.01 161.06 C 205.00 165.09 205.00 169.12 205.02 173.15 C 193.73 177.77 181.06 179.50 169.09 176.77 C 160.26 174.79 152.27 169.37 147.26 161.83 C 141.92 154.00 139.93 144.35 139.95 134.99 C 139.92 125.41 141.98 115.50 147.61 107.59 C 152.68 100.31 160.61 95.23 169.23 93.29 Z" />
<path fill="#010101" d=" M 227.29 92.33 C 232.05 91.65 236.97 91.67 241.74 92.33 C 243.31 93.33 242.85 95.38 243.04 96.95 C 242.97 122.30 242.97 147.66 243.04 173.02 C 242.83 174.59 243.35 176.70 241.72 177.67 C 236.97 178.34 232.05 178.35 227.30 177.67 C 227.05 177.43 226.55 176.94 226.30 176.70 C 225.63 172.49 226.05 168.21 225.99 163.97 C 225.99 141.64 226.04 119.31 225.96 96.99 C 226.17 95.41 225.63 93.28 227.29 92.33 Z" />
<path fill="#2d235e" d=" M 411.75 92.66 C 420.77 91.18 430.54 91.83 438.64 96.41 C 446.38 100.77 451.84 108.56 454.15 117.06 C 456.17 123.85 456.09 130.99 456.03 138.00 C 435.30 138.01 414.58 137.97 393.86 138.03 C 394.78 145.75 396.64 153.97 402.46 159.57 C 409.13 166.16 419.15 167.61 428.12 166.78 C 436.88 166.11 445.26 163.07 453.01 159.03 C 453.00 163.39 453.00 167.75 453.02 172.11 C 439.49 177.27 424.50 179.82 410.20 176.70 C 400.13 174.54 390.99 168.21 385.76 159.29 C 380.56 150.51 379.34 139.94 380.20 129.93 C 380.96 120.67 384.09 111.36 390.36 104.35 C 395.81 98.06 403.57 94.00 411.75 92.66 Z" />
<path fill="#2d235e" d=" M 228.00 94.00 C 232.33 94.00 236.67 94.00 241.00 94.00 C 241.00 121.33 241.00 148.67 241.00 176.00 C 236.67 176.00 232.33 176.00 228.00 176.00 C 228.00 148.67 228.00 121.33 228.00 94.00 Z" />
<path fill="#010101" d=" M 405.29 107.26 C 414.21 101.58 427.36 101.08 435.43 108.55 C 440.92 113.45 442.58 120.96 443.18 127.97 C 426.90 128.00 410.61 128.04 394.32 127.95 C 395.40 120.09 398.27 111.73 405.29 107.26 Z" />
<path fill="#010101" d=" M 509.40 103.48 C 516.25 102.06 523.98 103.88 528.80 109.15 C 535.24 116.02 536.91 125.89 536.99 134.98 C 536.91 144.09 535.25 153.98 528.79 160.86 C 522.89 167.27 512.78 168.61 505.02 165.08 C 498.16 161.90 494.08 154.78 492.43 147.66 C 490.27 138.07 490.43 127.79 493.60 118.45 C 496.03 111.32 501.74 104.88 509.40 103.48 Z" />
<path fill="#2d235e" d=" M 405.08 110.07 C 413.88 103.24 428.54 102.92 435.85 112.12 C 439.03 116.05 440.05 121.12 441.10 125.94 C 426.26 126.08 411.42 126.04 396.58 126.04 C 398.10 120.18 400.05 113.90 405.08 110.07 Z" />
<path fill="#2d235e" d=" M 510.31 105.44 C 517.30 104.02 525.11 106.86 529.11 112.86 C 533.88 119.89 535.16 128.69 534.92 137.03 C 534.55 145.14 532.65 153.85 526.82 159.86 C 519.15 167.51 504.79 166.26 498.85 157.10 C 492.43 147.19 491.92 134.45 494.40 123.20 C 496.14 115.10 501.57 106.85 510.31 105.44 Z" />
<path fill="#010101" d=" M 406.05 112.08 C 413.06 106.52 423.84 105.21 431.27 110.70 C 435.64 113.78 437.20 119.17 438.71 124.01 C 425.53 124.07 412.35 124.09 399.17 124.07 C 400.83 119.79 402.35 115.08 406.05 112.08 Z" />
<path fill="#010101" d=" M 511.35 107.42 C 517.70 106.32 524.65 109.42 527.90 115.03 C 534.57 126.88 534.61 142.31 528.29 154.32 C 524.47 161.78 514.39 165.03 506.94 161.15 C 501.26 158.72 498.34 152.75 496.73 147.13 C 493.89 136.79 494.55 125.18 499.70 115.66 C 502.01 111.25 506.50 108.28 511.35 107.42 Z" />
<path fill="#2d235e" d=" M 408.38 113.26 C 413.93 109.49 421.53 107.93 427.68 111.26 C 432.09 113.13 434.01 117.77 435.94 121.80 C 424.70 121.86 413.46 121.88 402.22 121.79 C 403.94 118.74 405.43 115.34 408.38 113.26 Z" />
<path fill="#2d235e" d=" M 512.46 109.56 C 517.88 108.96 523.61 111.90 526.18 116.74 C 530.51 124.65 531.72 134.16 529.90 142.97 C 528.47 149.32 525.99 156.76 519.37 159.35 C 513.14 162.36 505.06 159.32 501.85 153.34 C 496.32 143.27 495.87 130.71 500.17 120.11 C 501.99 114.68 506.64 110.23 512.46 109.56 Z" />
<path fill="#010101" d=" M 404.90 120.14 C 409.06 113.12 418.52 109.08 426.17 112.69 C 429.57 113.96 431.42 117.24 433.28 120.12 C 423.82 120.26 414.36 120.30 404.90 120.14 Z" />
<path fill="#010101" d=" M 513.30 111.40 C 517.71 111.25 522.24 113.63 524.37 117.55 C 529.14 126.11 530.20 136.67 527.14 145.99 C 525.67 150.63 523.43 155.79 518.51 157.60 C 513.20 160.18 506.33 157.48 503.58 152.42 C 497.56 141.61 497.63 127.65 503.96 116.98 C 505.92 113.73 509.60 111.82 513.30 111.40 Z" />
<path fill="#2d235e" d=" M 420.29 113.79 C 423.59 114.21 426.49 116.05 429.41 117.54 C 422.78 117.76 416.15 117.74 409.53 117.58 C 412.98 116.01 416.44 114.12 420.29 113.79 Z" />
<path fill="#2d235e" d=" M 511.38 114.60 C 514.88 113.68 519.02 114.67 521.20 117.70 C 528.09 127.92 527.99 142.14 521.20 152.39 C 517.85 156.84 510.21 156.85 506.82 152.45 C 499.95 142.12 499.94 127.82 506.86 117.52 C 507.97 116.06 509.62 115.07 511.38 114.60 Z" />
<path fill="#010101" d=" M 169.36 122.52 C 171.77 117.35 177.94 115.15 183.32 115.36 C 190.25 115.63 196.03 120.57 202.99 120.52 C 205.49 120.60 207.98 120.51 210.48 120.46 C 212.40 118.54 214.35 116.64 216.30 114.74 C 216.41 128.24 216.41 141.75 216.30 155.25 C 214.35 153.36 212.42 151.46 210.49 149.55 C 205.34 149.46 199.93 148.94 195.12 151.20 C 189.16 153.75 182.25 156.24 175.93 153.35 C 170.53 151.63 168.19 145.97 166.95 140.94 C 165.21 134.77 166.56 128.15 169.36 122.52 Z" />
<path fill="#010101" d=" M 512.11 115.85 C 515.93 114.61 519.80 117.46 521.37 120.84 C 524.43 127.27 526.23 134.78 524.04 141.78 C 522.73 146.29 521.34 151.80 516.62 153.88 C 512.71 155.72 508.27 152.82 506.64 149.23 C 503.57 142.76 501.77 135.21 503.96 128.18 C 505.28 123.46 506.87 117.54 512.11 115.85 Z" />
</svg>
